<svg width="378" height="217" viewBox="0 0 378 217" fill="none" xmlns="http://www.w3.org/2000/svg">
<path d="M215.369 0H233.439V18.0701H215.369V0ZM233.439 0H251.509V18.0701H233.439V0ZM251.509 0H269.579V18.0701H251.509V0ZM269.579 0H287.649V18.0701H269.579V0ZM287.649 0H305.72V18.0701H287.649V0ZM197.299 18.0701H215.369V36.1402H197.299V18.0701ZM197.299 36.1402H215.369V54.2104H197.299V36.1402ZM215.369 36.1402H233.439V54.2104H215.369V36.1402ZM215.369 54.2104H233.439V72.2805H215.369V54.2104ZM233.439 54.2104H251.509V72.2805H233.439V54.2104ZM251.509 54.2104H269.579V72.2805H251.509V54.2104ZM251.509 72.2805H269.579V90.3506H251.509V72.2805ZM233.439 72.2805H251.509V90.3506H233.439V72.2805ZM179.229 54.2104H197.299V72.2805H179.229V54.2104ZM179.229 72.2805H197.299V90.3506H179.229V72.2805ZM197.299 72.2805H215.369V90.3506H197.299V72.2805ZM197.299 90.3506H215.369V108.421H197.299V90.3506ZM215.369 90.3506H233.439V108.421H215.369V90.3506ZM215.369 108.421H233.439V126.491H215.369V108.421ZM233.439 108.421H251.509V126.491H233.439V108.421ZM305.72 0H323.79V18.0701H305.72V0ZM287.649 18.0701H305.72V36.1402H287.649V18.0701ZM305.72 18.0701H323.79V36.1402H305.72V18.0701ZM323.79 18.0701H341.86V36.1402H323.79V18.0701ZM341.86 18.0701H359.93V36.1402H341.86V18.0701ZM323.79 36.1402H341.86V54.2104H323.79V36.1402ZM359.93 0H378V18.0701H359.93V0ZM269.579 72.2805H287.649V90.3506H269.579V72.2805ZM287.649 72.2805H305.72V90.3506H287.649V72.2805ZM305.72 72.2805H323.79V90.3506H305.72V72.2805ZM179.229 180.701H197.299V198.771H179.229V180.701ZM197.299 180.701H215.369V198.771H197.299V180.701ZM215.369 180.701H233.439V198.771H215.369V180.701ZM233.439 180.701H251.509V198.771H233.439V180.701ZM251.509 180.701H269.579V198.771H251.509V180.701ZM269.579 180.701H287.649V198.771H269.579V180.701ZM287.649 180.701H305.72V198.771H287.649V180.701ZM305.72 180.701H323.79V198.771H305.72V180.701ZM323.79 180.701H341.86V198.771H323.79V180.701ZM233.439 198.771H251.509V216.841H233.439V198.771ZM251.509 198.771H269.579V216.841H251.509V198.771ZM269.579 198.771H287.649V216.841H269.579V198.771ZM215.369 162.631H233.439V180.701H215.369V162.631ZM233.439 162.631H251.509V180.701H233.439V162.631ZM251.509 162.631H269.579V180.701H251.509V162.631ZM341.86 180.701H359.93V198.771H341.86V180.701ZM341.86 162.631H359.93V180.701H341.86V162.631ZM323.79 144.561H341.86V162.631H323.79V144.561ZM359.93 144.561H378V162.631H359.93V144.561ZM305.72 144.561H323.79V162.631H305.72V144.561ZM287.649 144.561H305.72V162.631H287.649V144.561ZM305.72 126.491H323.79V144.561H305.72V126.491ZM287.649 126.491H305.72V144.561H287.649V126.491ZM269.579 126.491H287.649V144.561H269.579V126.491ZM251.509 126.491H269.579V144.561H251.509V126.491ZM251.509 108.421H269.579V126.491H251.509V108.421ZM359.93 126.491H378V144.561H359.93V126.491ZM359.93 108.421H378V126.491H359.93V108.421ZM341.86 108.421H359.93V126.491H341.86V108.421ZM341.86 126.491H359.93V144.561H341.86V126.491ZM323.79 108.421H341.86V126.491H323.79V108.421ZM305.72 90.3506H323.79V108.421H305.72V90.3506ZM287.649 90.3506H305.72V108.421H287.649V90.3506ZM269.579 90.3506H287.649V108.421H269.579V90.3506ZM323.79 90.3506H341.86V108.421H323.79V90.3506ZM341.86 90.3506H359.93V108.421H341.86V90.3506ZM161.159 198.771H179.229V216.841H161.159V198.771Z" fill="black"/>
<path d="M0 14.4561H14.5048V28.9122H0V14.4561ZM14.5048 0H29.0095V14.4561H14.5048V0ZM29.0095 0H43.5143V14.4561H29.0095V0ZM43.5143 0H58.0191V14.4561H43.5143V0ZM58.0191 0H72.5238V14.4561H58.0191V0ZM72.5238 0H87.0286V14.4561H72.5238V0ZM72.5238 14.4561H87.0286V28.9122H72.5238V14.4561ZM58.0191 14.4561H72.5238V28.9122H58.0191V14.4561ZM87.0286 14.4561H101.533V28.9122H87.0286V14.4561ZM101.533 14.4561H116.038V28.9122H101.533V14.4561ZM116.038 0H130.543V14.4561H116.038V0ZM145.048 0H159.552V14.4561H145.048V0ZM130.543 14.4561H145.048V28.9122H130.543V14.4561ZM130.543 28.9122H145.048V43.3683H130.543V28.9122ZM116.038 28.9122H130.543V43.3683H116.038V28.9122ZM116.038 43.3683H130.543V57.8244H116.038V43.3683ZM130.543 43.3683H145.048V57.8244H130.543V43.3683ZM130.543 57.8244H145.048V72.2804H130.543V57.8244ZM130.543 72.2804H145.048V86.7365H130.543V72.2804ZM116.038 72.2804H130.543V86.7365H116.038V72.2804ZM116.038 57.8244H130.543V72.2804H116.038V57.8244ZM87.0286 43.3683H101.533V57.8244H87.0286V43.3683ZM87.0286 57.8244H101.533V72.2804H87.0286V57.8244ZM87.0286 72.2804H101.533V86.7365H87.0286V72.2804ZM87.0286 86.7365H101.533V101.193H87.0286V86.7365ZM87.0286 101.193H101.533V115.649H87.0286V101.193ZM87.0286 115.649H101.533V130.105H87.0286V115.649ZM116.038 86.7365H130.543V101.193H116.038V86.7365ZM130.543 86.7365H145.048V101.193H130.543V86.7365ZM130.543 101.193H145.048V115.649H130.543V101.193ZM116.038 101.193H130.543V115.649H116.038V101.193ZM116.038 115.649H130.543V130.105H116.038V115.649ZM130.543 115.649H145.048V130.105H130.543V115.649ZM72.5238 72.2804H87.0286V86.7365H72.5238V72.2804ZM58.0191 72.2804H72.5238V86.7365H58.0191V72.2804ZM72.5238 101.193H87.0286V115.649H72.5238V101.193ZM58.0191 101.193H72.5238V115.649H58.0191V101.193ZM87.0286 173.473H101.533V187.929H87.0286V173.473ZM72.5238 187.929H87.0286V202.385H72.5238V187.929ZM58.0191 187.929H72.5238V202.385H58.0191V187.929ZM43.5143 187.929H58.0191V202.385H43.5143V187.929ZM29.0095 187.929H43.5143V202.385H29.0095V187.929ZM14.5048 202.385H29.0095V216.841H14.5048V202.385ZM58.0191 202.385H72.5238V216.841H58.0191V202.385ZM72.5238 202.385H87.0286V216.841H72.5238V202.385ZM87.0286 202.385H101.533V216.841H87.0286V202.385ZM101.533 202.385H116.038V216.841H101.533V202.385ZM116.038 187.929H130.543V202.385H116.038V187.929ZM116.038 173.473H130.543V187.929H116.038V173.473ZM130.543 173.473H145.048V187.929H130.543V173.473ZM87.0286 159.017H101.533V173.473H87.0286V159.017ZM87.0286 144.561H101.533V159.017H87.0286V144.561ZM87.0286 130.105H101.533V144.561H87.0286V130.105ZM116.038 130.105H130.543V144.561H116.038V130.105ZM116.038 144.561H130.543V159.017H116.038V144.561ZM116.038 159.017H130.543V173.473H116.038V159.017ZM130.543 159.017H145.048V173.473H130.543V159.017ZM130.543 144.561H145.048V159.017H130.543V144.561ZM130.543 130.105H145.048V144.561H130.543V130.105Z" fill="black"/>
</svg>
